<svg xmlns="http://www.w3.org/2000/svg" xmlns:xlink="http://www.w3.org/1999/xlink" viewBox="0 0 1025.75 124.18"><defs><style>.cls-1{fill:url(#Dégradé_sans_nom);}.cls-2{font-size:46px;fill:#003866;stroke:#003866;stroke-width:2px;font-family:CenturyGothic, Century Gothic;}.cls-3{fill:#7d7a78;stroke:#2d2d2d;stroke-linecap:round;stroke-width:1.32px;}</style><linearGradient id="Dégradé_sans_nom" x1="211.53" y1="1380.21" x2="211.53" y2="1315.04" gradientTransform="matrix(1.11, 0, 0, -1.11, -53.61, 1536.99)" gradientUnits="userSpaceOnUse"><stop offset="0" stop-color="red"/><stop offset="1" stop-color="red" stop-opacity="0"/></linearGradient></defs><g id="Calque_2" data-name="Calque 2"><g id="svg3720"><path id="path15758" class="cls-1" d="M363.1,75.06s-29.26-22.35-53-24.77c-19.88-2-45.63.07-60.45-10.13C219.93,19.69,194.09,3.38,132.5.2,51-4-5.35,60.06.4,70.56c-4.33-1,51.38-66.32,134.33-58,44.58,1.15,57.06,7.34,107.47,38.27,17.58,9,49.71,4.89,70.89,6.2,22.88,1.41,50,18,50,18Z"/><text class="cls-2" transform="translate(363.1 109.07)">VEHICULES D’OCCASION INC.</text><ellipse class="cls-3" cx="315.58" cy="93.45" rx="25.22" ry="29.5" transform="translate(166.25 386.75) rotate(-79.51)"/><ellipse class="cls-3" cx="32.17" cy="87.71" rx="29.5" ry="25.22" transform="translate(-22.47 11.93) rotate(-15.65)"/></g></g></svg>